<mxfile host="app.diagrams.net" modified="2024-06-01T17:27:42.679Z" agent="Mozilla/5.0 (Macintosh; Intel Mac OS X 10_15_7) AppleWebKit/537.36 (KHTML, like Gecko) Chrome/125.0.0.0 Safari/537.36" etag="tYHC6WFBMQYlMT4ZIyMs" version="24.4.4" type="device">
  <diagram name="Page-1" id="2YBvvXClWsGukQMizWep">
    <mxGraphModel dx="-93" dy="1152" grid="0" gridSize="10" guides="1" tooltips="1" connect="1" arrows="1" fold="1" page="0" pageScale="1" pageWidth="850" pageHeight="1100" math="0" shadow="0">
      <root>
        <mxCell id="0" />
        <mxCell id="1" parent="0" />
        <mxCell id="Nqpnq9ONBKXhgnxI2q2Q-45" value="" style="rounded=1;whiteSpace=wrap;html=1;fillColor=#d5e8d4;strokeColor=#82b366;opacity=30;arcSize=3;" parent="1" vertex="1">
          <mxGeometry x="1582" y="-449" width="1895" height="2939" as="geometry" />
        </mxCell>
        <mxCell id="Nqpnq9ONBKXhgnxI2q2Q-44" value="" style="rounded=1;whiteSpace=wrap;html=1;fillColor=#fff2cc;strokeColor=#d6b656;opacity=40;" parent="1" vertex="1">
          <mxGeometry x="890" y="3820" width="2592" height="230" as="geometry" />
        </mxCell>
        <mxCell id="Nqpnq9ONBKXhgnxI2q2Q-43" value="" style="rounded=1;whiteSpace=wrap;html=1;fillColor=#dae8fc;strokeColor=#6c8ebf;opacity=40;" parent="1" vertex="1">
          <mxGeometry x="890" y="3400" width="2592" height="320" as="geometry" />
        </mxCell>
        <mxCell id="Nqpnq9ONBKXhgnxI2q2Q-42" value="" style="rounded=1;whiteSpace=wrap;html=1;fillColor=#e1d5e7;strokeColor=#9673a6;opacity=40;" parent="1" vertex="1">
          <mxGeometry x="890" y="2840" width="2592" height="540" as="geometry" />
        </mxCell>
        <mxCell id="Nqpnq9ONBKXhgnxI2q2Q-31" value="Error" style="shape=umlFrame;whiteSpace=wrap;html=1;strokeColor=#000066;fillColor=none;fontFamily=Tahoma;fontSize=10;fontColor=#000066;align=center;width=41;height=15;gradientColor=none;" parent="1" vertex="1">
          <mxGeometry x="2240" y="2013" width="1090" height="60" as="geometry" />
        </mxCell>
        <mxCell id="Nqpnq9ONBKXhgnxI2q2Q-29" value="Ok" style="shape=umlFrame;whiteSpace=wrap;html=1;strokeColor=#000066;fillColor=none;fontFamily=Tahoma;fontSize=10;fontColor=#000066;align=center;width=41;height=15;gradientColor=none;" parent="1" vertex="1">
          <mxGeometry x="2240" y="1953" width="1090" height="60" as="geometry" />
        </mxCell>
        <mxCell id="Nqpnq9ONBKXhgnxI2q2Q-26" value="Trigger" style="shape=umlFrame;whiteSpace=wrap;html=1;strokeColor=#000066;fillColor=none;fontFamily=Tahoma;fontSize=10;fontColor=#000066;align=center;width=41;height=15;gradientColor=none;" parent="1" vertex="1">
          <mxGeometry x="1820" y="1727" width="600" height="130" as="geometry" />
        </mxCell>
        <mxCell id="Dkkg-td01ur48ESy3Eq0-56" value="Error" style="shape=umlFrame;whiteSpace=wrap;html=1;strokeColor=#000066;fillColor=none;fontFamily=Tahoma;fontSize=10;fontColor=#000066;align=center;width=41;height=15;gradientColor=none;" parent="1" vertex="1">
          <mxGeometry x="2240" y="330" width="350" height="90" as="geometry" />
        </mxCell>
        <mxCell id="Dkkg-td01ur48ESy3Eq0-59" value="ok" style="shape=umlFrame;whiteSpace=wrap;html=1;strokeColor=#000066;fillColor=none;fontFamily=Tahoma;fontSize=10;fontColor=#000066;align=center;width=41;height=15;gradientColor=none;" parent="1" vertex="1">
          <mxGeometry x="2240" y="420" width="350" height="40" as="geometry" />
        </mxCell>
        <mxCell id="Dkkg-td01ur48ESy3Eq0-69" value="true" style="shape=umlFrame;whiteSpace=wrap;html=1;strokeColor=#000066;fillColor=none;fontFamily=Tahoma;fontSize=10;fontColor=#000066;align=center;width=41;height=15;gradientColor=none;" parent="1" vertex="1">
          <mxGeometry x="2240" y="649" width="350" height="90" as="geometry" />
        </mxCell>
        <mxCell id="Nqpnq9ONBKXhgnxI2q2Q-12" value="false" style="shape=umlFrame;whiteSpace=wrap;html=1;strokeColor=#000066;fillColor=none;fontFamily=Tahoma;fontSize=10;fontColor=#000066;align=center;width=41;height=15;gradientColor=none;" parent="1" vertex="1">
          <mxGeometry x="2240" y="589" width="350" height="60" as="geometry" />
        </mxCell>
        <mxCell id="Nqpnq9ONBKXhgnxI2q2Q-15" value="Error" style="shape=umlFrame;whiteSpace=wrap;html=1;strokeColor=#000066;fillColor=none;fontFamily=Tahoma;fontSize=10;fontColor=#000066;align=center;width=41;height=15;gradientColor=none;" parent="1" vertex="1">
          <mxGeometry x="2240" y="870" width="350" height="40" as="geometry" />
        </mxCell>
        <mxCell id="Nqpnq9ONBKXhgnxI2q2Q-16" value="ok" style="shape=umlFrame;whiteSpace=wrap;html=1;strokeColor=#000066;fillColor=none;fontFamily=Tahoma;fontSize=10;fontColor=#000066;align=center;width=41;height=15;gradientColor=none;" parent="1" vertex="1">
          <mxGeometry x="2240" y="910" width="350" height="40" as="geometry" />
        </mxCell>
        <mxCell id="Dkkg-td01ur48ESy3Eq0-104" value="error" style="shape=umlFrame;whiteSpace=wrap;html=1;strokeColor=#000066;fillColor=none;fontFamily=Tahoma;fontSize=10;fontColor=#000066;align=center;width=41;height=15;gradientColor=none;" parent="1" vertex="1">
          <mxGeometry x="2240" y="1170" width="360" height="80" as="geometry" />
        </mxCell>
        <mxCell id="Dkkg-td01ur48ESy3Eq0-2" value="Delivery&lt;br&gt;Microservice" style="rounded=0;whiteSpace=wrap;html=1;" parent="1" vertex="1">
          <mxGeometry x="3220" y="1493" width="120" height="60" as="geometry" />
        </mxCell>
        <mxCell id="Dkkg-td01ur48ESy3Eq0-3" value="Grabber&lt;div&gt;Microservice&lt;/div&gt;" style="rounded=0;whiteSpace=wrap;html=1;" parent="1" vertex="1">
          <mxGeometry x="2984" y="1304" width="120" height="60" as="geometry" />
        </mxCell>
        <mxCell id="Dkkg-td01ur48ESy3Eq0-4" value="Factorylistener&lt;div&gt;Microservice&lt;/div&gt;" style="rounded=0;whiteSpace=wrap;html=1;" parent="1" vertex="1">
          <mxGeometry x="2000" y="1637" width="120" height="60" as="geometry" />
        </mxCell>
        <mxCell id="Dkkg-td01ur48ESy3Eq0-5" value="Factorysimulator&lt;div&gt;Microservice / Real Factory&lt;/div&gt;" style="rounded=0;whiteSpace=wrap;html=1;" parent="1" vertex="1">
          <mxGeometry x="1800" y="1637" width="120" height="60" as="geometry" />
        </mxCell>
        <mxCell id="Dkkg-td01ur48ESy3Eq0-7" value="&lt;div&gt;Order&lt;br&gt;Microservice&lt;/div&gt;" style="rounded=0;whiteSpace=wrap;html=1;" parent="1" vertex="1">
          <mxGeometry x="2770" y="-260" width="120" height="60" as="geometry" />
        </mxCell>
        <mxCell id="Dkkg-td01ur48ESy3Eq0-8" value="&lt;div&gt;Warehouse&lt;br&gt;Microservice&lt;/div&gt;" style="rounded=0;whiteSpace=wrap;html=1;" parent="1" vertex="1">
          <mxGeometry x="2490" y="200" width="120" height="60" as="geometry" />
        </mxCell>
        <mxCell id="Dkkg-td01ur48ESy3Eq0-9" value="Camunda Cloud Workflow" style="ellipse;shape=cloud;whiteSpace=wrap;html=1;" parent="1" vertex="1">
          <mxGeometry x="2220" y="-22" width="120" height="80" as="geometry" />
        </mxCell>
        <mxCell id="Dkkg-td01ur48ESy3Eq0-13" value="" style="endArrow=none;dashed=1;html=1;rounded=0;entryX=0.5;entryY=1;entryDx=0;entryDy=0;" parent="1" source="Dkkg-td01ur48ESy3Eq0-14" target="Dkkg-td01ur48ESy3Eq0-7" edge="1">
          <mxGeometry width="50" height="50" relative="1" as="geometry">
            <mxPoint x="2830" y="1261" as="sourcePoint" />
            <mxPoint x="2820" y="-129" as="targetPoint" />
          </mxGeometry>
        </mxCell>
        <mxCell id="Dkkg-td01ur48ESy3Eq0-15" value="" style="endArrow=none;dashed=1;html=1;rounded=0;entryX=0.5;entryY=1;entryDx=0;entryDy=0;" parent="1" target="Dkkg-td01ur48ESy3Eq0-14" edge="1">
          <mxGeometry width="50" height="50" relative="1" as="geometry">
            <mxPoint x="2830" y="2520" as="sourcePoint" />
            <mxPoint x="2830" y="-100" as="targetPoint" />
          </mxGeometry>
        </mxCell>
        <mxCell id="Dkkg-td01ur48ESy3Eq0-14" value="" style="html=1;points=[];perimeter=orthogonalPerimeter;outlineConnect=0;targetShapes=umlLifeline;portConstraint=eastwest;newEdgeStyle={&quot;edgeStyle&quot;:&quot;elbowEdgeStyle&quot;,&quot;elbow&quot;:&quot;vertical&quot;,&quot;curved&quot;:0,&quot;rounded&quot;:0};" parent="1" vertex="1">
          <mxGeometry x="2825" y="-150" width="10" height="2630" as="geometry" />
        </mxCell>
        <mxCell id="Dkkg-td01ur48ESy3Eq0-17" value="placeOrder(color, deliveryMethod)" style="endArrow=classic;html=1;rounded=0;" parent="1" target="Dkkg-td01ur48ESy3Eq0-14" edge="1">
          <mxGeometry x="-0.4074" y="9" width="50" height="50" relative="1" as="geometry">
            <mxPoint x="1660" y="-140" as="sourcePoint" />
            <mxPoint x="2425" y="-150" as="targetPoint" />
            <mxPoint as="offset" />
          </mxGeometry>
        </mxCell>
        <mxCell id="Dkkg-td01ur48ESy3Eq0-19" value="checkStock(color)" style="endArrow=classic;html=1;rounded=0;" parent="1" edge="1">
          <mxGeometry y="20" width="50" height="50" relative="1" as="geometry">
            <mxPoint x="2835" y="-140" as="sourcePoint" />
            <mxPoint x="2835" y="-110" as="targetPoint" />
            <Array as="points">
              <mxPoint x="2870" y="-140" />
              <mxPoint x="2870" y="-110" />
            </Array>
            <mxPoint as="offset" />
          </mxGeometry>
        </mxCell>
        <mxCell id="Dkkg-td01ur48ESy3Eq0-20" value="response [error | orderId]" style="html=1;verticalAlign=bottom;endArrow=open;dashed=1;endSize=8;edgeStyle=elbowEdgeStyle;elbow=vertical;curved=0;rounded=0;" parent="1" edge="1">
          <mxGeometry x="0.5035" relative="1" as="geometry">
            <mxPoint x="1660" y="-20" as="targetPoint" />
            <Array as="points">
              <mxPoint x="2660" y="-21" />
              <mxPoint x="2225" y="80" />
            </Array>
            <mxPoint x="2825" y="-31" as="sourcePoint" />
            <mxPoint as="offset" />
          </mxGeometry>
        </mxCell>
        <mxCell id="Dkkg-td01ur48ESy3Eq0-21" value="removeColorFromStock(color)" style="endArrow=classic;html=1;rounded=0;" parent="1" edge="1">
          <mxGeometry y="20" width="50" height="50" relative="1" as="geometry">
            <mxPoint x="2835" y="-79" as="sourcePoint" />
            <mxPoint x="2835" y="-49" as="targetPoint" />
            <Array as="points">
              <mxPoint x="2870" y="-79" />
              <mxPoint x="2870" y="-49" />
            </Array>
            <mxPoint as="offset" />
          </mxGeometry>
        </mxCell>
        <mxCell id="Dkkg-td01ur48ESy3Eq0-22" value="" style="endArrow=none;dashed=1;html=1;rounded=0;entryX=0.55;entryY=0.95;entryDx=0;entryDy=0;entryPerimeter=0;" parent="1" target="Dkkg-td01ur48ESy3Eq0-9" edge="1">
          <mxGeometry width="50" height="50" relative="1" as="geometry">
            <mxPoint x="2286" y="75" as="sourcePoint" />
            <mxPoint x="190" y="290" as="targetPoint" />
          </mxGeometry>
        </mxCell>
        <mxCell id="Dkkg-td01ur48ESy3Eq0-23" value="sendUpdates(orderId, station, color)" style="endArrow=classic;html=1;rounded=0;" parent="1" edge="1">
          <mxGeometry width="50" height="50" relative="1" as="geometry">
            <mxPoint x="2830" y="3515" as="sourcePoint" />
            <mxPoint x="1200" y="3520" as="targetPoint" />
          </mxGeometry>
        </mxCell>
        <mxCell id="Dkkg-td01ur48ESy3Eq0-24" value="sendCurrentStock(red, blue, white)" style="endArrow=classic;html=1;rounded=0;" parent="1" edge="1">
          <mxGeometry width="50" height="50" relative="1" as="geometry">
            <mxPoint x="2830" y="3544" as="sourcePoint" />
            <mxPoint x="1200" y="3550" as="targetPoint" />
          </mxGeometry>
        </mxCell>
        <mxCell id="Dkkg-td01ur48ESy3Eq0-25" value="sendOrderReceivedMessage(order)" style="endArrow=classic;html=1;rounded=0;" parent="1" edge="1">
          <mxGeometry x="0.0221" y="-10" width="50" height="50" relative="1" as="geometry">
            <mxPoint x="2825" y="75" as="sourcePoint" />
            <mxPoint x="2290.999999999999" y="75" as="targetPoint" />
            <mxPoint as="offset" />
          </mxGeometry>
        </mxCell>
        <mxCell id="Dkkg-td01ur48ESy3Eq0-26" value="" style="endArrow=none;dashed=1;html=1;rounded=0;entryX=0.5;entryY=1;entryDx=0;entryDy=0;" parent="1" source="Dkkg-td01ur48ESy3Eq0-44" target="Dkkg-td01ur48ESy3Eq0-8" edge="1">
          <mxGeometry width="50" height="50" relative="1" as="geometry">
            <mxPoint x="2550" y="1710" as="sourcePoint" />
            <mxPoint x="2490" y="400" as="targetPoint" />
          </mxGeometry>
        </mxCell>
        <mxCell id="Dkkg-td01ur48ESy3Eq0-27" value="message on topic &lt;br&gt;&quot;warehouse&quot; (StockUpdateDto)" style="endArrow=classic;html=1;rounded=0;" parent="1" edge="1">
          <mxGeometry width="50" height="50" relative="1" as="geometry">
            <mxPoint x="2551.5" y="3256" as="sourcePoint" />
            <mxPoint x="2831.5" y="3256" as="targetPoint" />
            <mxPoint as="offset" />
          </mxGeometry>
        </mxCell>
        <mxCell id="Dkkg-td01ur48ESy3Eq0-29" value="Kafka&lt;br&gt;Communication" style="rounded=0;whiteSpace=wrap;html=1;" parent="1" vertex="1">
          <mxGeometry x="1465" y="3020" width="120" height="60" as="geometry" />
        </mxCell>
        <mxCell id="Dkkg-td01ur48ESy3Eq0-36" value="" style="endArrow=none;dashed=1;html=1;rounded=0;entryX=0.5;entryY=1;entryDx=0;entryDy=0;" parent="1" target="Dkkg-td01ur48ESy3Eq0-4" edge="1">
          <mxGeometry width="50" height="50" relative="1" as="geometry">
            <mxPoint x="2060" y="2520" as="sourcePoint" />
            <mxPoint x="2049" y="1200" as="targetPoint" />
          </mxGeometry>
        </mxCell>
        <mxCell id="Dkkg-td01ur48ESy3Eq0-37" value="message on topic&lt;br&gt;&quot;HBW_1-processed&quot; (WarehouseUpdateDto)" style="endArrow=classic;html=1;rounded=0;" parent="1" edge="1">
          <mxGeometry x="0.1552" width="50" height="50" relative="1" as="geometry">
            <mxPoint x="1601" y="3276" as="sourcePoint" />
            <mxPoint x="2551.5" y="3276" as="targetPoint" />
            <mxPoint as="offset" />
          </mxGeometry>
        </mxCell>
        <mxCell id="Dkkg-td01ur48ESy3Eq0-38" value="" style="endArrow=none;dashed=1;html=1;rounded=0;entryX=0.5;entryY=1;entryDx=0;entryDy=0;" parent="1" source="Dkkg-td01ur48ESy3Eq0-118" target="Dkkg-td01ur48ESy3Eq0-2" edge="1">
          <mxGeometry width="50" height="50" relative="1" as="geometry">
            <mxPoint x="1030" y="3477" as="sourcePoint" />
            <mxPoint x="1029" y="417" as="targetPoint" />
          </mxGeometry>
        </mxCell>
        <mxCell id="Dkkg-td01ur48ESy3Eq0-39" value="" style="endArrow=none;dashed=1;html=1;rounded=0;entryX=0.5;entryY=1;entryDx=0;entryDy=0;" parent="1" source="Dkkg-td01ur48ESy3Eq0-108" target="Dkkg-td01ur48ESy3Eq0-3" edge="1">
          <mxGeometry width="50" height="50" relative="1" as="geometry">
            <mxPoint x="3044" y="2154" as="sourcePoint" />
            <mxPoint x="3043" y="-376" as="targetPoint" />
          </mxGeometry>
        </mxCell>
        <mxCell id="Dkkg-td01ur48ESy3Eq0-40" value="checkGoodsAvailable(order)" style="endArrow=classic;html=1;rounded=0;" parent="1" edge="1">
          <mxGeometry width="50" height="50" relative="1" as="geometry">
            <mxPoint x="2291" y="280.0000000000001" as="sourcePoint" />
            <mxPoint x="2545" y="280.0000000000001" as="targetPoint" />
          </mxGeometry>
        </mxCell>
        <mxCell id="Dkkg-td01ur48ESy3Eq0-43" value="" style="endArrow=none;dashed=1;html=1;rounded=0;entryX=0.55;entryY=0.95;entryDx=0;entryDy=0;entryPerimeter=0;" parent="1" target="Dkkg-td01ur48ESy3Eq0-41" edge="1">
          <mxGeometry width="50" height="50" relative="1" as="geometry">
            <mxPoint x="2287" y="2520" as="sourcePoint" />
            <mxPoint x="126" y="166" as="targetPoint" />
          </mxGeometry>
        </mxCell>
        <mxCell id="Dkkg-td01ur48ESy3Eq0-41" value="" style="html=1;points=[];perimeter=orthogonalPerimeter;outlineConnect=0;targetShapes=umlLifeline;portConstraint=eastwest;newEdgeStyle={&quot;edgeStyle&quot;:&quot;elbowEdgeStyle&quot;,&quot;elbow&quot;:&quot;vertical&quot;,&quot;curved&quot;:0,&quot;rounded&quot;:0};" parent="1" vertex="1">
          <mxGeometry x="2281" y="74" width="10" height="2406" as="geometry" />
        </mxCell>
        <mxCell id="Dkkg-td01ur48ESy3Eq0-45" value="" style="endArrow=none;dashed=1;html=1;rounded=0;" parent="1" target="Dkkg-td01ur48ESy3Eq0-44" edge="1">
          <mxGeometry width="50" height="50" relative="1" as="geometry">
            <mxPoint x="2550" y="2520" as="sourcePoint" />
            <mxPoint x="2950" y="1840" as="targetPoint" />
          </mxGeometry>
        </mxCell>
        <mxCell id="Dkkg-td01ur48ESy3Eq0-44" value="" style="html=1;points=[];perimeter=orthogonalPerimeter;outlineConnect=0;targetShapes=umlLifeline;portConstraint=eastwest;newEdgeStyle={&quot;edgeStyle&quot;:&quot;elbowEdgeStyle&quot;,&quot;elbow&quot;:&quot;vertical&quot;,&quot;curved&quot;:0,&quot;rounded&quot;:0};" parent="1" vertex="1">
          <mxGeometry x="2545" y="280" width="10" height="980" as="geometry" />
        </mxCell>
        <mxCell id="Dkkg-td01ur48ESy3Eq0-46" value="checkProduct(color)" style="endArrow=classic;html=1;rounded=0;" parent="1" edge="1">
          <mxGeometry y="20" width="50" height="50" relative="1" as="geometry">
            <mxPoint x="2555" y="290" as="sourcePoint" />
            <mxPoint x="2555" y="320" as="targetPoint" />
            <Array as="points">
              <mxPoint x="2590" y="290" />
              <mxPoint x="2590" y="320" />
            </Array>
            <mxPoint as="offset" />
          </mxGeometry>
        </mxCell>
        <mxCell id="Dkkg-td01ur48ESy3Eq0-61" value="Error: GoodsNotAvailable" style="endArrow=classic;html=1;rounded=0;" parent="1" edge="1">
          <mxGeometry width="50" height="50" relative="1" as="geometry">
            <mxPoint x="2545" y="350" as="sourcePoint" />
            <mxPoint x="2291" y="350" as="targetPoint" />
          </mxGeometry>
        </mxCell>
        <mxCell id="Dkkg-td01ur48ESy3Eq0-62" value="UserTask&lt;br&gt;warehouse-error" style="endArrow=classic;html=1;rounded=0;" parent="1" edge="1">
          <mxGeometry y="20" width="50" height="50" relative="1" as="geometry">
            <mxPoint x="2291" y="360" as="sourcePoint" />
            <mxPoint x="2291" y="410" as="targetPoint" />
            <Array as="points">
              <mxPoint x="2326" y="360" />
              <mxPoint x="2326" y="410" />
              <mxPoint x="2291" y="410" />
            </Array>
            <mxPoint as="offset" />
          </mxGeometry>
        </mxCell>
        <mxCell id="Dkkg-td01ur48ESy3Eq0-63" value="sendCompleteCommand()" style="endArrow=classic;html=1;rounded=0;" parent="1" edge="1">
          <mxGeometry width="50" height="50" relative="1" as="geometry">
            <mxPoint x="2544.5" y="440" as="sourcePoint" />
            <mxPoint x="2290" y="440" as="targetPoint" />
          </mxGeometry>
        </mxCell>
        <mxCell id="Dkkg-td01ur48ESy3Eq0-64" value="checkHBW(order)" style="endArrow=classic;html=1;rounded=0;" parent="1" edge="1" target="Dkkg-td01ur48ESy3Eq0-44">
          <mxGeometry width="50" height="50" relative="1" as="geometry">
            <mxPoint x="2291" y="490" as="sourcePoint" />
            <mxPoint x="2540" y="490" as="targetPoint" />
          </mxGeometry>
        </mxCell>
        <mxCell id="Dkkg-td01ur48ESy3Eq0-66" value="isInUse()" style="endArrow=classic;html=1;rounded=0;" parent="1" edge="1">
          <mxGeometry x="-0.02" y="10" width="50" height="50" relative="1" as="geometry">
            <mxPoint x="2555" y="500" as="sourcePoint" />
            <mxPoint x="2555" y="530" as="targetPoint" />
            <Array as="points">
              <mxPoint x="2580" y="500" />
              <mxPoint x="2580" y="530" />
            </Array>
            <mxPoint as="offset" />
          </mxGeometry>
        </mxCell>
        <mxCell id="Dkkg-td01ur48ESy3Eq0-68" value="sendCompleteCommand() [yes | no]" style="endArrow=classic;html=1;rounded=0;" parent="1" edge="1">
          <mxGeometry width="50" height="50" relative="1" as="geometry">
            <mxPoint x="2543" y="539.9999999999998" as="sourcePoint" />
            <mxPoint x="2290" y="540" as="targetPoint" />
          </mxGeometry>
        </mxCell>
        <mxCell id="Dkkg-td01ur48ESy3Eq0-71" value="&lt;p style=&quot;margin-top: 0px; font-size: 11px;&quot;&gt;&lt;span style=&quot;font-weight: 400;&quot;&gt;if Goods&lt;/span&gt;&lt;br&gt;available == false&lt;/p&gt;" style="text;html=1;whiteSpace=wrap;overflow=hidden;rounded=0;align=center;verticalAlign=top;fontSize=11;fontStyle=1;fontFamily=Helvetica;" parent="1" vertex="1">
          <mxGeometry x="2130" y="330" width="120" height="40" as="geometry" />
        </mxCell>
        <mxCell id="Dkkg-td01ur48ESy3Eq0-72" value="&lt;span style=&quot;font-weight: normal;&quot;&gt;if HBW&lt;/span&gt;&lt;div&gt;available == true&lt;br&gt;&lt;/div&gt;" style="text;html=1;whiteSpace=wrap;overflow=hidden;rounded=0;align=center;verticalAlign=top;fontSize=11;fontStyle=1;fontFamily=Helvetica;" parent="1" vertex="1">
          <mxGeometry x="2130" y="649" width="120" height="40" as="geometry" />
        </mxCell>
        <mxCell id="Dkkg-td01ur48ESy3Eq0-73" value="lockHBW()" style="endArrow=classic;html=1;rounded=0;" parent="1" edge="1" target="Dkkg-td01ur48ESy3Eq0-44">
          <mxGeometry width="50" height="50" relative="1" as="geometry">
            <mxPoint x="2293" y="669" as="sourcePoint" />
            <mxPoint x="2540" y="669" as="targetPoint" />
          </mxGeometry>
        </mxCell>
        <mxCell id="Dkkg-td01ur48ESy3Eq0-74" value="setInUse()" style="endArrow=classic;html=1;rounded=0;" parent="1" edge="1">
          <mxGeometry x="-0.02" y="10" width="50" height="50" relative="1" as="geometry">
            <mxPoint x="2555" y="679" as="sourcePoint" />
            <mxPoint x="2555" y="709" as="targetPoint" />
            <Array as="points">
              <mxPoint x="2580" y="679" />
              <mxPoint x="2580" y="709" />
            </Array>
            <mxPoint as="offset" />
          </mxGeometry>
        </mxCell>
        <mxCell id="Dkkg-td01ur48ESy3Eq0-75" value="sendCompleteCommand() [yes | no]" style="endArrow=classic;html=1;rounded=0;" parent="1" edge="1" source="Dkkg-td01ur48ESy3Eq0-44">
          <mxGeometry width="50" height="50" relative="1" as="geometry">
            <mxPoint x="2540" y="719" as="sourcePoint" />
            <mxPoint x="2291" y="718.9999999999998" as="targetPoint" />
          </mxGeometry>
        </mxCell>
        <mxCell id="Dkkg-td01ur48ESy3Eq0-82" value="positionHBW()" style="endArrow=classic;html=1;rounded=0;" parent="1" edge="1" target="Dkkg-td01ur48ESy3Eq0-44">
          <mxGeometry width="50" height="50" relative="1" as="geometry">
            <mxPoint x="2291" y="770" as="sourcePoint" />
            <mxPoint x="2550" y="770" as="targetPoint" />
          </mxGeometry>
        </mxCell>
        <mxCell id="Dkkg-td01ur48ESy3Eq0-83" value="checkGoods(order)" style="endArrow=classic;html=1;rounded=0;" parent="1" target="Dkkg-td01ur48ESy3Eq0-44" edge="1">
          <mxGeometry x="0.0006" width="50" height="50" relative="1" as="geometry">
            <mxPoint x="2293" y="810" as="sourcePoint" />
            <mxPoint x="2807" y="810" as="targetPoint" />
            <mxPoint as="offset" />
          </mxGeometry>
        </mxCell>
        <mxCell id="Dkkg-td01ur48ESy3Eq0-85" value="getProductSlot(color)" style="endArrow=classic;html=1;rounded=0;" parent="1" edge="1">
          <mxGeometry x="-0.0286" y="10" width="50" height="50" relative="1" as="geometry">
            <mxPoint x="2555" y="824" as="sourcePoint" />
            <mxPoint x="2555" y="854" as="targetPoint" />
            <Array as="points">
              <mxPoint x="2590" y="824" />
              <mxPoint x="2590" y="854" />
            </Array>
            <mxPoint as="offset" />
          </mxGeometry>
        </mxCell>
        <mxCell id="Dkkg-td01ur48ESy3Eq0-92" value="sendCompleteCommand(productSlot)" style="endArrow=classic;html=1;rounded=0;" parent="1" edge="1">
          <mxGeometry x="0.0005" width="50" height="50" relative="1" as="geometry">
            <mxPoint x="2545" y="929.9999999999998" as="sourcePoint" />
            <mxPoint x="2291" y="929.9999999999997" as="targetPoint" />
            <mxPoint as="offset" />
          </mxGeometry>
        </mxCell>
        <mxCell id="Dkkg-td01ur48ESy3Eq0-93" value="&lt;span style=&quot;font-weight: normal;&quot;&gt;if&lt;/span&gt;&lt;br&gt;positionHBW() &amp;amp;&amp;amp; checkGoods()" style="text;html=1;whiteSpace=wrap;overflow=hidden;rounded=0;align=center;verticalAlign=middle;fontSize=11;fontStyle=1;fontFamily=Helvetica;" parent="1" vertex="1">
          <mxGeometry x="2079" y="960" width="212" height="60" as="geometry" />
        </mxCell>
        <mxCell id="Dkkg-td01ur48ESy3Eq0-94" value="sendCompleteCommand()" style="endArrow=classic;html=1;rounded=0;" parent="1" edge="1" target="Dkkg-td01ur48ESy3Eq0-41">
          <mxGeometry width="50" height="50" relative="1" as="geometry">
            <mxPoint x="2545" y="789.9999999999998" as="sourcePoint" />
            <mxPoint x="2300" y="790" as="targetPoint" />
          </mxGeometry>
        </mxCell>
        <mxCell id="Dkkg-td01ur48ESy3Eq0-95" value="unloadProduct(productSlot)" style="endArrow=classic;html=1;rounded=0;" parent="1" edge="1" target="Dkkg-td01ur48ESy3Eq0-44">
          <mxGeometry width="50" height="50" relative="1" as="geometry">
            <mxPoint x="2293" y="990" as="sourcePoint" />
            <mxPoint x="2550" y="990" as="targetPoint" />
          </mxGeometry>
        </mxCell>
        <mxCell id="Dkkg-td01ur48ESy3Eq0-96" value="getProduct(productSlot)" style="endArrow=classic;html=1;rounded=0;" parent="1" edge="1">
          <mxGeometry y="31" width="50" height="50" relative="1" as="geometry">
            <mxPoint x="2555" y="1000" as="sourcePoint" />
            <mxPoint x="2555" y="1030" as="targetPoint" />
            <Array as="points">
              <mxPoint x="2590" y="1000" />
              <mxPoint x="2590" y="1030" />
            </Array>
            <mxPoint as="offset" />
          </mxGeometry>
        </mxCell>
        <mxCell id="Dkkg-td01ur48ESy3Eq0-97" value="sendCompleteCommand()" style="endArrow=classic;html=1;rounded=0;" parent="1" edge="1">
          <mxGeometry x="-0.0005" width="50" height="50" relative="1" as="geometry">
            <mxPoint x="2543.5" y="1040.3799999999997" as="sourcePoint" />
            <mxPoint x="2290" y="1040" as="targetPoint" />
            <mxPoint as="offset" />
          </mxGeometry>
        </mxCell>
        <mxCell id="Dkkg-td01ur48ESy3Eq0-98" value="freeHBW()" style="endArrow=classic;html=1;rounded=0;" parent="1" edge="1" target="Dkkg-td01ur48ESy3Eq0-44">
          <mxGeometry width="50" height="50" relative="1" as="geometry">
            <mxPoint x="2293" y="1060" as="sourcePoint" />
            <mxPoint x="2540" y="1060" as="targetPoint" />
          </mxGeometry>
        </mxCell>
        <mxCell id="Dkkg-td01ur48ESy3Eq0-100" value="releaseHBW()" style="endArrow=classic;html=1;rounded=0;" parent="1" edge="1">
          <mxGeometry y="31" width="50" height="50" relative="1" as="geometry">
            <mxPoint x="2555" y="1075" as="sourcePoint" />
            <mxPoint x="2555" y="1105" as="targetPoint" />
            <Array as="points">
              <mxPoint x="2590" y="1075" />
              <mxPoint x="2590" y="1105" />
            </Array>
            <mxPoint as="offset" />
          </mxGeometry>
        </mxCell>
        <mxCell id="Dkkg-td01ur48ESy3Eq0-103" value="new HBWAvailable event" style="endArrow=classic;html=1;rounded=0;" parent="1" edge="1">
          <mxGeometry x="-0.0005" width="50" height="50" relative="1" as="geometry">
            <mxPoint x="2545" y="1128.0099999999998" as="sourcePoint" />
            <mxPoint x="2290" y="1128" as="targetPoint" />
            <mxPoint as="offset" />
          </mxGeometry>
        </mxCell>
        <mxCell id="Dkkg-td01ur48ESy3Eq0-105" value="freeHBW()" style="endArrow=classic;html=1;rounded=0;" parent="1" edge="1" target="Dkkg-td01ur48ESy3Eq0-44">
          <mxGeometry width="50" height="50" relative="1" as="geometry">
            <mxPoint x="2292.5" y="1210.06" as="sourcePoint" />
            <mxPoint x="2540" y="1210" as="targetPoint" />
          </mxGeometry>
        </mxCell>
        <mxCell id="Dkkg-td01ur48ESy3Eq0-106" value="adjustStock()" style="endArrow=classic;html=1;rounded=0;" parent="1" edge="1" target="Dkkg-td01ur48ESy3Eq0-44">
          <mxGeometry width="50" height="50" relative="1" as="geometry">
            <mxPoint x="2292.5" y="1190.06" as="sourcePoint" />
            <mxPoint x="2540" y="1190" as="targetPoint" />
          </mxGeometry>
        </mxCell>
        <mxCell id="Dkkg-td01ur48ESy3Eq0-109" value="" style="endArrow=none;dashed=1;html=1;rounded=0;entryX=0.5;entryY=1;entryDx=0;entryDy=0;" parent="1" edge="1">
          <mxGeometry width="50" height="50" relative="1" as="geometry">
            <mxPoint x="3042" y="2520" as="sourcePoint" />
            <mxPoint x="3042.44" y="1400" as="targetPoint" />
          </mxGeometry>
        </mxCell>
        <mxCell id="Dkkg-td01ur48ESy3Eq0-108" value="" style="html=1;points=[];perimeter=orthogonalPerimeter;outlineConnect=0;targetShapes=umlLifeline;portConstraint=eastwest;newEdgeStyle={&quot;edgeStyle&quot;:&quot;elbowEdgeStyle&quot;,&quot;elbow&quot;:&quot;vertical&quot;,&quot;curved&quot;:0,&quot;rounded&quot;:0};" parent="1" vertex="1">
          <mxGeometry x="3039" y="1394" width="10" height="110" as="geometry" />
        </mxCell>
        <mxCell id="Dkkg-td01ur48ESy3Eq0-110" value="grabGoods()" style="endArrow=classic;html=1;rounded=0;" parent="1" edge="1">
          <mxGeometry width="50" height="50" relative="1" as="geometry">
            <mxPoint x="2291" y="1394" as="sourcePoint" />
            <mxPoint x="3039" y="1394" as="targetPoint" />
          </mxGeometry>
        </mxCell>
        <mxCell id="Dkkg-td01ur48ESy3Eq0-114" value="sendMessageCommand(available=true)" style="endArrow=classic;html=1;rounded=0;" parent="1" source="Dkkg-td01ur48ESy3Eq0-108" edge="1">
          <mxGeometry x="-0.0005" width="50" height="50" relative="1" as="geometry">
            <mxPoint x="2995" y="1503.9999999999995" as="sourcePoint" />
            <mxPoint x="2291" y="1504" as="targetPoint" />
            <mxPoint as="offset" />
          </mxGeometry>
        </mxCell>
        <mxCell id="Dkkg-td01ur48ESy3Eq0-115" value="&lt;span style=&quot;font-weight: normal;&quot;&gt;10 seconds timeout&lt;/span&gt;" style="text;html=1;whiteSpace=wrap;overflow=hidden;rounded=0;align=center;verticalAlign=middle;fontSize=11;fontStyle=1;fontFamily=Helvetica;" parent="1" vertex="1">
          <mxGeometry x="2281" y="1404" width="120" height="30" as="geometry" />
        </mxCell>
        <mxCell id="Dkkg-td01ur48ESy3Eq0-116" value="UserTask&lt;div&gt;grabber-error&lt;/div&gt;" style="endArrow=classic;html=1;rounded=0;" parent="1" edge="1">
          <mxGeometry y="20" width="50" height="50" relative="1" as="geometry">
            <mxPoint x="2301" y="1439" as="sourcePoint" />
            <mxPoint x="2301" y="1479" as="targetPoint" />
            <Array as="points">
              <mxPoint x="2330" y="1439" />
              <mxPoint x="2330" y="1459" />
              <mxPoint x="2330" y="1479" />
            </Array>
            <mxPoint as="offset" />
          </mxGeometry>
        </mxCell>
        <mxCell id="Dkkg-td01ur48ESy3Eq0-117" value="" style="html=1;points=[];perimeter=orthogonalPerimeter;outlineConnect=0;targetShapes=umlLifeline;portConstraint=eastwest;newEdgeStyle={&quot;edgeStyle&quot;:&quot;elbowEdgeStyle&quot;,&quot;elbow&quot;:&quot;vertical&quot;,&quot;curved&quot;:0,&quot;rounded&quot;:0};" parent="1" vertex="1">
          <mxGeometry x="2291" y="1434" width="10" height="50" as="geometry" />
        </mxCell>
        <mxCell id="Dkkg-td01ur48ESy3Eq0-119" value="" style="endArrow=none;dashed=1;html=1;rounded=0;entryX=0.5;entryY=1;entryDx=0;entryDy=0;" parent="1" target="Dkkg-td01ur48ESy3Eq0-118" edge="1">
          <mxGeometry width="50" height="50" relative="1" as="geometry">
            <mxPoint x="3280" y="2520" as="sourcePoint" />
            <mxPoint x="1030" y="220" as="targetPoint" />
          </mxGeometry>
        </mxCell>
        <mxCell id="Dkkg-td01ur48ESy3Eq0-118" value="" style="html=1;points=[];perimeter=orthogonalPerimeter;outlineConnect=0;targetShapes=umlLifeline;portConstraint=eastwest;newEdgeStyle={&quot;edgeStyle&quot;:&quot;elbowEdgeStyle&quot;,&quot;elbow&quot;:&quot;vertical&quot;,&quot;curved&quot;:0,&quot;rounded&quot;:0};" parent="1" vertex="1">
          <mxGeometry x="3275" y="1577" width="10" height="420" as="geometry" />
        </mxCell>
        <mxCell id="Dkkg-td01ur48ESy3Eq0-120" value="registerOrder(order)" style="endArrow=classic;html=1;rounded=0;" parent="1" edge="1" target="Dkkg-td01ur48ESy3Eq0-118">
          <mxGeometry x="0.0059" width="50" height="50" relative="1" as="geometry">
            <mxPoint x="2291" y="1657" as="sourcePoint" />
            <mxPoint x="3270" y="1657" as="targetPoint" />
            <mxPoint as="offset" />
          </mxGeometry>
        </mxCell>
        <mxCell id="Dkkg-td01ur48ESy3Eq0-122" value="ok" style="endArrow=classic;html=1;rounded=0;dashed=1;" parent="1" edge="1">
          <mxGeometry x="-0.0005" width="50" height="50" relative="1" as="geometry">
            <mxPoint x="3275" y="1709.9999999999995" as="sourcePoint" />
            <mxPoint x="2291" y="1709.9999999999995" as="targetPoint" />
            <mxPoint as="offset" />
          </mxGeometry>
        </mxCell>
        <mxCell id="Dkkg-td01ur48ESy3Eq0-123" value="addOrder(order)" style="endArrow=classic;html=1;rounded=0;" parent="1" edge="1">
          <mxGeometry y="31" width="50" height="50" relative="1" as="geometry">
            <mxPoint x="3285" y="1666" as="sourcePoint" />
            <mxPoint x="3285" y="1696" as="targetPoint" />
            <Array as="points">
              <mxPoint x="3320" y="1666" />
              <mxPoint x="3320" y="1696" />
            </Array>
            <mxPoint as="offset" />
          </mxGeometry>
        </mxCell>
        <mxCell id="Dkkg-td01ur48ESy3Eq0-127" value="" style="endArrow=none;dashed=1;html=1;rounded=0;entryX=0.5;entryY=1;entryDx=0;entryDy=0;" parent="1" target="Dkkg-td01ur48ESy3Eq0-5" edge="1">
          <mxGeometry width="50" height="50" relative="1" as="geometry">
            <mxPoint x="1860" y="2520" as="sourcePoint" />
            <mxPoint x="1900" y="1780" as="targetPoint" />
          </mxGeometry>
        </mxCell>
        <mxCell id="Dkkg-td01ur48ESy3Eq0-134" value="checkColor(order, retrievedColor)" style="endArrow=classic;html=1;rounded=0;" parent="1" edge="1">
          <mxGeometry width="50" height="50" relative="1" as="geometry">
            <mxPoint x="2291" y="1883" as="sourcePoint" />
            <mxPoint x="3275" y="1883" as="targetPoint" />
          </mxGeometry>
        </mxCell>
        <mxCell id="Dkkg-td01ur48ESy3Eq0-135" value="check if colors match" style="endArrow=classic;html=1;rounded=0;" parent="1" edge="1">
          <mxGeometry y="31" width="50" height="50" relative="1" as="geometry">
            <mxPoint x="3285" y="1893" as="sourcePoint" />
            <mxPoint x="3285" y="1923" as="targetPoint" />
            <Array as="points">
              <mxPoint x="3320" y="1893" />
              <mxPoint x="3320" y="1923" />
            </Array>
            <mxPoint as="offset" />
          </mxGeometry>
        </mxCell>
        <mxCell id="Dkkg-td01ur48ESy3Eq0-136" value="sendCompleteCommand(matchFound)" style="endArrow=classic;html=1;rounded=0;dashed=1;" parent="1" edge="1">
          <mxGeometry x="-0.0005" width="50" height="50" relative="1" as="geometry">
            <mxPoint x="3277" y="1933" as="sourcePoint" />
            <mxPoint x="2293" y="1933" as="targetPoint" />
            <mxPoint as="offset" />
          </mxGeometry>
        </mxCell>
        <mxCell id="Dkkg-td01ur48ESy3Eq0-138" value="&lt;span style=&quot;font-weight: normal;&quot;&gt;if&lt;/span&gt;&lt;div&gt;matchFound&lt;/div&gt;" style="text;html=1;whiteSpace=wrap;overflow=hidden;rounded=0;align=center;verticalAlign=middle;fontSize=11;fontStyle=1;fontFamily=Helvetica;" parent="1" vertex="1">
          <mxGeometry x="2140" y="1953" width="120" height="30" as="geometry" />
        </mxCell>
        <mxCell id="Dkkg-td01ur48ESy3Eq0-139" value="orderMatched()" style="endArrow=classic;html=1;rounded=0;" parent="1" edge="1">
          <mxGeometry width="50" height="50" relative="1" as="geometry">
            <mxPoint x="2291" y="1973" as="sourcePoint" />
            <mxPoint x="3275" y="1973" as="targetPoint" />
          </mxGeometry>
        </mxCell>
        <mxCell id="Dkkg-td01ur48ESy3Eq0-144" value="DeliveryStationError" style="endArrow=classic;html=1;rounded=0;" parent="1" edge="1">
          <mxGeometry x="-0.0169" y="7" width="50" height="50" relative="1" as="geometry">
            <mxPoint x="2291" y="2023" as="sourcePoint" />
            <mxPoint x="2291" y="2063" as="targetPoint" />
            <Array as="points">
              <mxPoint x="2320" y="2023" />
              <mxPoint x="2330" y="2023" />
              <mxPoint x="2330" y="2063" />
            </Array>
            <mxPoint as="offset" />
          </mxGeometry>
        </mxCell>
        <mxCell id="Dkkg-td01ur48ESy3Eq0-147" value="postal" style="shape=umlFrame;whiteSpace=wrap;html=1;strokeColor=#000066;fillColor=none;fontFamily=Tahoma;fontSize=10;fontColor=#000066;align=center;width=41;height=15;gradientColor=none;" parent="1" vertex="1">
          <mxGeometry x="2240" y="2107" width="150" height="80" as="geometry" />
        </mxCell>
        <mxCell id="Dkkg-td01ur48ESy3Eq0-153" value="MQTT Messages" style="rounded=0;whiteSpace=wrap;html=1;" parent="1" vertex="1">
          <mxGeometry x="1270" y="2900" width="120" height="60" as="geometry" />
        </mxCell>
        <mxCell id="Dkkg-td01ur48ESy3Eq0-155" value="setStatus()" style="endArrow=classic;html=1;rounded=0;" parent="1" edge="1">
          <mxGeometry x="-1" y="-50" width="50" height="50" relative="1" as="geometry">
            <mxPoint x="2496.5" y="3966" as="sourcePoint" />
            <mxPoint x="2546.5" y="3966" as="targetPoint" />
            <mxPoint x="-50" y="-50" as="offset" />
          </mxGeometry>
        </mxCell>
        <mxCell id="Dkkg-td01ur48ESy3Eq0-157" value="message on topic&lt;br&gt;&quot;VGR_1-processed&quot; (DeliveryUpdateDto)" style="endArrow=classic;html=1;rounded=0;" parent="1" edge="1">
          <mxGeometry width="50" height="50" relative="1" as="geometry">
            <mxPoint x="1600" y="3356" as="sourcePoint" />
            <mxPoint x="3281.5" y="3356" as="targetPoint" />
            <mxPoint as="offset" />
          </mxGeometry>
        </mxCell>
        <mxCell id="Dkkg-td01ur48ESy3Eq0-163" value="ok" style="endArrow=classic;html=1;rounded=0;" parent="1" source="Dkkg-td01ur48ESy3Eq0-161" edge="1">
          <mxGeometry width="50" height="50" relative="1" as="geometry">
            <mxPoint x="2436.5" y="4036" as="sourcePoint" />
            <mxPoint x="2496.5" y="3986" as="targetPoint" />
          </mxGeometry>
        </mxCell>
        <mxCell id="Dkkg-td01ur48ESy3Eq0-164" value="getStock()" style="endArrow=classic;html=1;rounded=0;" parent="1" edge="1">
          <mxGeometry x="-1" y="-50" width="50" height="50" relative="1" as="geometry">
            <mxPoint x="2496.5" y="4006" as="sourcePoint" />
            <mxPoint x="2546.5" y="4006" as="targetPoint" />
            <mxPoint x="-50" y="-50" as="offset" />
          </mxGeometry>
        </mxCell>
        <mxCell id="Dkkg-td01ur48ESy3Eq0-166" value="stock" style="endArrow=classic;html=1;rounded=0;" parent="1" source="Dkkg-td01ur48ESy3Eq0-165" edge="1">
          <mxGeometry width="50" height="50" relative="1" as="geometry">
            <mxPoint x="2436.5" y="4076" as="sourcePoint" />
            <mxPoint x="2496.5" y="4026" as="targetPoint" />
          </mxGeometry>
        </mxCell>
        <mxCell id="Dkkg-td01ur48ESy3Eq0-168" value="getStatus()" style="endArrow=classic;html=1;rounded=0;" parent="1" edge="1">
          <mxGeometry x="-1" y="-50" width="50" height="50" relative="1" as="geometry">
            <mxPoint x="3226.5" y="3925.2200000000003" as="sourcePoint" />
            <mxPoint x="3276.5" y="3925.2200000000003" as="targetPoint" />
            <mxPoint x="-50" y="-50" as="offset" />
          </mxGeometry>
        </mxCell>
        <mxCell id="Dkkg-td01ur48ESy3Eq0-170" value="status" style="endArrow=classic;html=1;rounded=0;" parent="1" edge="1">
          <mxGeometry x="-0.0044" width="50" height="50" relative="1" as="geometry">
            <mxPoint x="3281.5" y="3945.2199999999993" as="sourcePoint" />
            <mxPoint x="3226.5" y="3945.2200000000003" as="targetPoint" />
            <mxPoint as="offset" />
          </mxGeometry>
        </mxCell>
        <mxCell id="Dkkg-td01ur48ESy3Eq0-171" value="getOrders()" style="endArrow=classic;html=1;rounded=0;" parent="1" edge="1">
          <mxGeometry x="-1" y="-50" width="50" height="50" relative="1" as="geometry">
            <mxPoint x="3226.5" y="3965.2200000000003" as="sourcePoint" />
            <mxPoint x="3276.5" y="3965.2200000000003" as="targetPoint" />
            <mxPoint x="-50" y="-50" as="offset" />
          </mxGeometry>
        </mxCell>
        <mxCell id="Dkkg-td01ur48ESy3Eq0-173" value="orders" style="endArrow=classic;html=1;rounded=0;" parent="1" source="Dkkg-td01ur48ESy3Eq0-172" edge="1">
          <mxGeometry width="50" height="50" relative="1" as="geometry">
            <mxPoint x="3161.5" y="4035.16" as="sourcePoint" />
            <mxPoint x="3221.5" y="3985.16" as="targetPoint" />
          </mxGeometry>
        </mxCell>
        <mxCell id="Dkkg-td01ur48ESy3Eq0-174" value="triggetLightSensor()" style="endArrow=classic;html=1;rounded=0;" parent="1" edge="1">
          <mxGeometry x="-1" y="-50" width="50" height="50" relative="1" as="geometry">
            <mxPoint x="3226.5" y="4005.6000000000004" as="sourcePoint" />
            <mxPoint x="3276.5" y="4005.6000000000004" as="targetPoint" />
            <mxPoint x="-50" y="-50" as="offset" />
          </mxGeometry>
        </mxCell>
        <mxCell id="Dkkg-td01ur48ESy3Eq0-176" value="ok" style="endArrow=classic;html=1;rounded=0;" parent="1" source="Dkkg-td01ur48ESy3Eq0-175" edge="1">
          <mxGeometry width="50" height="50" relative="1" as="geometry">
            <mxPoint x="3161.5" y="4075.6000000000004" as="sourcePoint" />
            <mxPoint x="3221.5" y="4025.6000000000004" as="targetPoint" />
          </mxGeometry>
        </mxCell>
        <mxCell id="Dkkg-td01ur48ESy3Eq0-177" value="Camunda&lt;br&gt;ProductAtLightSensor&lt;br&gt;Message" style="endArrow=classic;html=1;rounded=0;dashed=1;" parent="1" edge="1">
          <mxGeometry x="1" y="60" width="50" height="50" relative="1" as="geometry">
            <mxPoint x="3281.5" y="4015.6000000000004" as="sourcePoint" />
            <mxPoint x="3341.5" y="4015.6000000000004" as="targetPoint" />
            <mxPoint x="60" y="60" as="offset" />
          </mxGeometry>
        </mxCell>
        <mxCell id="Dkkg-td01ur48ESy3Eq0-178" value="startSending()" style="endArrow=classic;html=1;rounded=0;" parent="1" edge="1">
          <mxGeometry x="-1" y="-50" width="50" height="50" relative="1" as="geometry">
            <mxPoint x="1345" y="2975" as="sourcePoint" />
            <mxPoint x="1395" y="2975" as="targetPoint" />
            <mxPoint x="-50" y="-50" as="offset" />
          </mxGeometry>
        </mxCell>
        <mxCell id="Dkkg-td01ur48ESy3Eq0-180" value="ok" style="endArrow=classic;html=1;rounded=0;" parent="1" source="Dkkg-td01ur48ESy3Eq0-179" edge="1">
          <mxGeometry width="50" height="50" relative="1" as="geometry">
            <mxPoint x="1050" y="3235" as="sourcePoint" />
            <mxPoint x="1346" y="2995" as="targetPoint" />
          </mxGeometry>
        </mxCell>
        <mxCell id="Dkkg-td01ur48ESy3Eq0-181" value="start sending&lt;br&gt;MQTT messages" style="endArrow=classic;html=1;rounded=0;dashed=1;" parent="1" edge="1">
          <mxGeometry x="1" y="45" width="50" height="50" relative="1" as="geometry">
            <mxPoint x="1405" y="2984.8" as="sourcePoint" />
            <mxPoint x="1465" y="2984.8" as="targetPoint" />
            <mxPoint x="45" y="45" as="offset" />
          </mxGeometry>
        </mxCell>
        <mxCell id="Dkkg-td01ur48ESy3Eq0-183" value="start sending&lt;br&gt;Kafka messages &lt;br&gt;for received &lt;br&gt;MQTT messages" style="endArrow=classic;html=1;rounded=0;dashed=1;" parent="1" edge="1">
          <mxGeometry x="1" y="45" width="50" height="50" relative="1" as="geometry">
            <mxPoint x="1600" y="3105.8" as="sourcePoint" />
            <mxPoint x="1660" y="3105.8" as="targetPoint" />
            <mxPoint x="45" y="45" as="offset" />
          </mxGeometry>
        </mxCell>
        <mxCell id="Dkkg-td01ur48ESy3Eq0-185" value="startSending()" style="endArrow=classic;html=1;rounded=0;" parent="1" edge="1" target="Dkkg-td01ur48ESy3Eq0-184">
          <mxGeometry x="-1" y="-50" width="50" height="50" relative="1" as="geometry">
            <mxPoint x="1540" y="3096" as="sourcePoint" />
            <mxPoint x="1590" y="3096" as="targetPoint" />
            <mxPoint x="-50" y="-50" as="offset" />
          </mxGeometry>
        </mxCell>
        <mxCell id="Dkkg-td01ur48ESy3Eq0-186" value="ok" style="endArrow=classic;html=1;rounded=0;" parent="1" source="Dkkg-td01ur48ESy3Eq0-184" edge="1">
          <mxGeometry width="50" height="50" relative="1" as="geometry">
            <mxPoint x="1245" y="3356" as="sourcePoint" />
            <mxPoint x="1541" y="3116" as="targetPoint" />
          </mxGeometry>
        </mxCell>
        <mxCell id="Dkkg-td01ur48ESy3Eq0-187" value="" style="endArrow=none;dashed=1;html=1;rounded=0;entryX=0.5;entryY=1;entryDx=0;entryDy=0;" parent="1" source="Dkkg-td01ur48ESy3Eq0-172" target="Dkkg-td01ur48ESy3Eq0-169" edge="1">
          <mxGeometry width="50" height="50" relative="1" as="geometry">
            <mxPoint x="3281.5" y="4295.6" as="sourcePoint" />
            <mxPoint x="3281.5" y="3035.6000000000004" as="targetPoint" />
          </mxGeometry>
        </mxCell>
        <mxCell id="Dkkg-td01ur48ESy3Eq0-169" value="" style="html=1;points=[];perimeter=orthogonalPerimeter;outlineConnect=0;targetShapes=umlLifeline;portConstraint=eastwest;newEdgeStyle={&quot;edgeStyle&quot;:&quot;elbowEdgeStyle&quot;,&quot;elbow&quot;:&quot;vertical&quot;,&quot;curved&quot;:0,&quot;rounded&quot;:0};" parent="1" vertex="1">
          <mxGeometry x="3276.5" y="3925.6000000000004" width="10" height="20" as="geometry" />
        </mxCell>
        <mxCell id="Dkkg-td01ur48ESy3Eq0-188" value="" style="endArrow=none;dashed=1;html=1;rounded=0;entryX=0.5;entryY=1;entryDx=0;entryDy=0;" parent="1" source="Dkkg-td01ur48ESy3Eq0-175" target="Dkkg-td01ur48ESy3Eq0-172" edge="1">
          <mxGeometry width="50" height="50" relative="1" as="geometry">
            <mxPoint x="3281.5" y="4295.6" as="sourcePoint" />
            <mxPoint x="3281.5" y="3945.6000000000004" as="targetPoint" />
          </mxGeometry>
        </mxCell>
        <mxCell id="Dkkg-td01ur48ESy3Eq0-172" value="" style="html=1;points=[];perimeter=orthogonalPerimeter;outlineConnect=0;targetShapes=umlLifeline;portConstraint=eastwest;newEdgeStyle={&quot;edgeStyle&quot;:&quot;elbowEdgeStyle&quot;,&quot;elbow&quot;:&quot;vertical&quot;,&quot;curved&quot;:0,&quot;rounded&quot;:0};" parent="1" vertex="1">
          <mxGeometry x="3276.5" y="3965.6000000000004" width="10" height="20" as="geometry" />
        </mxCell>
        <mxCell id="Dkkg-td01ur48ESy3Eq0-189" value="" style="endArrow=none;dashed=1;html=1;rounded=0;entryX=0.5;entryY=1;entryDx=0;entryDy=0;" parent="1" target="Dkkg-td01ur48ESy3Eq0-175" edge="1">
          <mxGeometry width="50" height="50" relative="1" as="geometry">
            <mxPoint x="3282" y="4106" as="sourcePoint" />
            <mxPoint x="3280" y="2536.38" as="targetPoint" />
          </mxGeometry>
        </mxCell>
        <mxCell id="Dkkg-td01ur48ESy3Eq0-175" value="" style="html=1;points=[];perimeter=orthogonalPerimeter;outlineConnect=0;targetShapes=umlLifeline;portConstraint=eastwest;newEdgeStyle={&quot;edgeStyle&quot;:&quot;elbowEdgeStyle&quot;,&quot;elbow&quot;:&quot;vertical&quot;,&quot;curved&quot;:0,&quot;rounded&quot;:0};" parent="1" vertex="1">
          <mxGeometry x="3276.5" y="4005.6000000000004" width="10" height="20" as="geometry" />
        </mxCell>
        <mxCell id="Nqpnq9ONBKXhgnxI2q2Q-1" value="&lt;span style=&quot;font-weight: normal;&quot;&gt;while &lt;/span&gt;&lt;br&gt;locked == false" style="text;html=1;whiteSpace=wrap;overflow=hidden;rounded=0;align=center;verticalAlign=top;fontSize=11;fontStyle=1;fontFamily=Helvetica;" parent="1" vertex="1">
          <mxGeometry x="2280" y="549" width="120" height="40" as="geometry" />
        </mxCell>
        <mxCell id="Nqpnq9ONBKXhgnxI2q2Q-3" value="resetHBW()" style="endArrow=classic;html=1;rounded=0;" parent="1" edge="1" target="Dkkg-td01ur48ESy3Eq0-44">
          <mxGeometry width="50" height="50" relative="1" as="geometry">
            <mxPoint x="2291" y="1230.06" as="sourcePoint" />
            <mxPoint x="2540" y="1230" as="targetPoint" />
          </mxGeometry>
        </mxCell>
        <mxCell id="Nqpnq9ONBKXhgnxI2q2Q-4" value="User&lt;br&gt;Interface" style="shape=note;whiteSpace=wrap;html=1;backgroundOutline=1;darkOpacity=0.05;" parent="1" vertex="1">
          <mxGeometry x="1621" y="-400" width="80" height="100" as="geometry" />
        </mxCell>
        <mxCell id="Nqpnq9ONBKXhgnxI2q2Q-5" value="User" style="shape=umlActor;verticalLabelPosition=bottom;verticalAlign=top;html=1;outlineConnect=0;" parent="1" vertex="1">
          <mxGeometry x="1646" y="-289" width="30" height="60" as="geometry" />
        </mxCell>
        <mxCell id="Nqpnq9ONBKXhgnxI2q2Q-6" value="" style="endArrow=none;dashed=1;html=1;rounded=0;" parent="1" edge="1">
          <mxGeometry width="50" height="50" relative="1" as="geometry">
            <mxPoint x="1660" y="2520" as="sourcePoint" />
            <mxPoint x="1661" y="-202" as="targetPoint" />
          </mxGeometry>
        </mxCell>
        <mxCell id="Nqpnq9ONBKXhgnxI2q2Q-8" value="&lt;p style=&quot;margin-top: 0px; font-size: 11px;&quot;&gt;&lt;span style=&quot;font-weight: 400;&quot;&gt;if Goods&lt;/span&gt;&lt;br&gt;available == true&lt;/p&gt;" style="text;html=1;whiteSpace=wrap;overflow=hidden;rounded=0;align=center;verticalAlign=top;fontSize=11;fontStyle=1;fontFamily=Helvetica;" parent="1" vertex="1">
          <mxGeometry x="2130" y="420" width="120" height="40" as="geometry" />
        </mxCell>
        <mxCell id="Nqpnq9ONBKXhgnxI2q2Q-11" value="HBWAvailable event" style="endArrow=classic;html=1;rounded=0;dashed=1;" parent="1" edge="1">
          <mxGeometry x="-1" y="-60" width="50" height="50" relative="1" as="geometry">
            <mxPoint x="2160" y="648" as="sourcePoint" />
            <mxPoint x="2240" y="648.4300000000001" as="targetPoint" />
            <mxPoint x="-60" y="-60" as="offset" />
          </mxGeometry>
        </mxCell>
        <mxCell id="Nqpnq9ONBKXhgnxI2q2Q-13" value="&lt;span style=&quot;font-weight: 400;&quot;&gt;if HBW&lt;br&gt;&lt;/span&gt;&lt;div&gt;available == false&lt;/div&gt;" style="text;html=1;whiteSpace=wrap;overflow=hidden;rounded=0;align=center;verticalAlign=top;fontSize=11;fontStyle=1;fontFamily=Helvetica;" parent="1" vertex="1">
          <mxGeometry x="2130" y="589" width="120" height="40" as="geometry" />
        </mxCell>
        <mxCell id="Nqpnq9ONBKXhgnxI2q2Q-14" value="waitForHBWAvailability()" style="endArrow=classic;html=1;rounded=0;" parent="1" edge="1">
          <mxGeometry x="-0.025" y="49" width="50" height="50" relative="1" as="geometry">
            <mxPoint x="2291" y="599" as="sourcePoint" />
            <mxPoint x="2291" y="629" as="targetPoint" />
            <Array as="points">
              <mxPoint x="2316" y="599" />
              <mxPoint x="2316" y="629" />
            </Array>
            <mxPoint as="offset" />
          </mxGeometry>
        </mxCell>
        <mxCell id="Nqpnq9ONBKXhgnxI2q2Q-17" value="&lt;div&gt;&lt;span style=&quot;font-weight: 400;&quot;&gt;if&lt;/span&gt;&lt;/div&gt;&lt;div&gt;productSlot != null&lt;/div&gt;" style="text;html=1;whiteSpace=wrap;overflow=hidden;rounded=0;align=center;verticalAlign=top;fontSize=11;fontStyle=1;fontFamily=Helvetica;" parent="1" vertex="1">
          <mxGeometry x="2590" y="910" width="120" height="40" as="geometry" />
        </mxCell>
        <mxCell id="Nqpnq9ONBKXhgnxI2q2Q-18" value="&lt;span style=&quot;font-weight: 400;&quot;&gt;if&lt;/span&gt;&lt;div&gt;productSlot == null&lt;/div&gt;" style="text;html=1;whiteSpace=wrap;overflow=hidden;rounded=0;align=center;verticalAlign=top;fontSize=11;fontStyle=1;fontFamily=Helvetica;" parent="1" vertex="1">
          <mxGeometry x="2590" y="870" width="120" height="40" as="geometry" />
        </mxCell>
        <mxCell id="Nqpnq9ONBKXhgnxI2q2Q-19" value="Error: GoodsNotAvailable" style="endArrow=classic;html=1;rounded=0;" parent="1" edge="1">
          <mxGeometry x="-0.0005" width="50" height="50" relative="1" as="geometry">
            <mxPoint x="2545" y="889.7099999999998" as="sourcePoint" />
            <mxPoint x="2291" y="889.7099999999997" as="targetPoint" />
            <mxPoint as="offset" />
          </mxGeometry>
        </mxCell>
        <mxCell id="Nqpnq9ONBKXhgnxI2q2Q-22" value="&lt;span style=&quot;font-weight: 400;&quot;&gt;if&lt;/span&gt;&lt;div&gt;nextProcess&lt;/div&gt;" style="text;html=1;whiteSpace=wrap;overflow=hidden;rounded=0;align=center;verticalAlign=top;fontSize=11;fontStyle=1;fontFamily=Helvetica;" parent="1" vertex="1">
          <mxGeometry x="2540" y="1108" width="120" height="40" as="geometry" />
        </mxCell>
        <mxCell id="Nqpnq9ONBKXhgnxI2q2Q-24" value="new GoodsNotAvailable" style="endArrow=classic;html=1;rounded=0;dashed=1;fontStyle=1" parent="1" edge="1">
          <mxGeometry x="-1" y="-60" width="50" height="50" relative="1" as="geometry">
            <mxPoint x="2180" y="1170" as="sourcePoint" />
            <mxPoint x="2240" y="1170.43" as="targetPoint" />
            <mxPoint x="-60" y="-60" as="offset" />
          </mxGeometry>
        </mxCell>
        <mxCell id="Nqpnq9ONBKXhgnxI2q2Q-25" value="new &lt;br&gt;ProductAtLightSensor&lt;br&gt;event" style="endArrow=classic;html=1;rounded=0;dashed=1;entryX=0.929;entryY=0.033;entryDx=0;entryDy=0;entryPerimeter=0;" parent="1" edge="1">
          <mxGeometry x="-1" y="23" width="50" height="50" relative="1" as="geometry">
            <mxPoint x="2480" y="1727.01" as="sourcePoint" />
            <mxPoint x="2420" y="1727.0000000000002" as="targetPoint" />
            <mxPoint as="offset" />
          </mxGeometry>
        </mxCell>
        <mxCell id="Nqpnq9ONBKXhgnxI2q2Q-27" value="retrieveColor()" style="endArrow=classic;html=1;rounded=0;" parent="1" edge="1">
          <mxGeometry x="0.0059" width="50" height="50" relative="1" as="geometry">
            <mxPoint x="2280.5" y="1770.5" as="sourcePoint" />
            <mxPoint x="2281.5" y="1803.5" as="targetPoint" />
            <mxPoint as="offset" />
            <Array as="points">
              <mxPoint x="2240" y="1770.5" />
              <mxPoint x="2240" y="1803.5" />
            </Array>
          </mxGeometry>
        </mxCell>
        <mxCell id="Nqpnq9ONBKXhgnxI2q2Q-30" value="sendCompleteCommand()" style="endArrow=classic;html=1;rounded=0;dashed=1;" parent="1" edge="1">
          <mxGeometry x="-0.0005" width="50" height="50" relative="1" as="geometry">
            <mxPoint x="3275" y="1993" as="sourcePoint" />
            <mxPoint x="2291" y="1993" as="targetPoint" />
            <mxPoint as="offset" />
          </mxGeometry>
        </mxCell>
        <mxCell id="Nqpnq9ONBKXhgnxI2q2Q-32" value="&lt;span style=&quot;font-weight: normal;&quot;&gt;if&lt;/span&gt;&lt;div&gt;not matchFound&lt;/div&gt;" style="text;html=1;whiteSpace=wrap;overflow=hidden;rounded=0;align=center;verticalAlign=middle;fontSize=11;fontStyle=1;fontFamily=Helvetica;" parent="1" vertex="1">
          <mxGeometry x="2130" y="2013" width="120" height="30" as="geometry" />
        </mxCell>
        <mxCell id="Nqpnq9ONBKXhgnxI2q2Q-37" value="&lt;span style=&quot;font-weight: normal;&quot;&gt;if&lt;/span&gt;&lt;div&gt;deliveryMethod == &quot;postal&quot;&lt;/div&gt;" style="text;html=1;whiteSpace=wrap;overflow=hidden;rounded=0;align=center;verticalAlign=middle;fontSize=11;fontStyle=1;fontFamily=Helvetica;" parent="1" vertex="1">
          <mxGeometry x="2080" y="2107" width="165" height="30" as="geometry" />
        </mxCell>
        <mxCell id="Nqpnq9ONBKXhgnxI2q2Q-38" value="UserTask&lt;br&gt;postal delivery" style="endArrow=classic;html=1;rounded=0;" parent="1" edge="1">
          <mxGeometry x="-0.0169" y="7" width="50" height="50" relative="1" as="geometry">
            <mxPoint x="2291" y="2127" as="sourcePoint" />
            <mxPoint x="2291" y="2167" as="targetPoint" />
            <Array as="points">
              <mxPoint x="2320" y="2127" />
              <mxPoint x="2330" y="2127" />
              <mxPoint x="2330" y="2167" />
            </Array>
            <mxPoint as="offset" />
          </mxGeometry>
        </mxCell>
        <mxCell id="Nqpnq9ONBKXhgnxI2q2Q-46" value="&lt;font style=&quot;font-size: 32px;&quot;&gt;&lt;b&gt;Workflow Camunda&lt;/b&gt;&lt;/font&gt;" style="text;html=1;align=center;verticalAlign=middle;resizable=0;points=[];autosize=1;strokeColor=none;fillColor=none;" parent="1" vertex="1">
          <mxGeometry x="1975" y="-420" width="316" height="50" as="geometry" />
        </mxCell>
        <mxCell id="Nqpnq9ONBKXhgnxI2q2Q-48" value="&lt;b&gt;&lt;font style=&quot;font-size: 32px;&quot;&gt;MQTT &amp;amp; Kafka&lt;/font&gt;&lt;/b&gt;" style="text;html=1;align=center;verticalAlign=middle;resizable=0;points=[];autosize=1;strokeColor=none;fillColor=none;" parent="1" vertex="1">
          <mxGeometry x="923" y="2860" width="237" height="50" as="geometry" />
        </mxCell>
        <mxCell id="Nqpnq9ONBKXhgnxI2q2Q-49" value="&lt;b&gt;&lt;font style=&quot;font-size: 32px;&quot;&gt;SseEmitter&lt;/font&gt;&lt;/b&gt;&lt;div&gt;&lt;b&gt;&lt;font style=&quot;font-size: 32px;&quot;&gt;&amp;amp;&lt;/font&gt;&lt;/b&gt;&lt;/div&gt;&lt;div&gt;&lt;b&gt;&lt;font style=&quot;font-size: 32px;&quot;&gt;Ajax fetch&lt;/font&gt;&lt;/b&gt;&lt;/div&gt;" style="text;html=1;align=center;verticalAlign=middle;resizable=0;points=[];autosize=1;strokeColor=none;fillColor=none;" parent="1" vertex="1">
          <mxGeometry x="921" y="3415" width="190" height="130" as="geometry" />
        </mxCell>
        <mxCell id="Nqpnq9ONBKXhgnxI2q2Q-50" value="&lt;b&gt;&lt;font style=&quot;font-size: 32px;&quot;&gt;Misc. Endpoints&lt;/font&gt;&lt;/b&gt;" style="text;html=1;align=center;verticalAlign=middle;resizable=0;points=[];autosize=1;strokeColor=none;fillColor=none;" parent="1" vertex="1">
          <mxGeometry x="923" y="3836" width="263" height="50" as="geometry" />
        </mxCell>
        <mxCell id="LoVnn4rdXUuGoE2ys0YD-2" value="Monitoring&lt;br&gt;Microservice" style="rounded=0;whiteSpace=wrap;html=1;" parent="1" vertex="1">
          <mxGeometry x="1974" y="-12" width="120" height="60" as="geometry" />
        </mxCell>
        <mxCell id="LoVnn4rdXUuGoE2ys0YD-3" value="" style="endArrow=none;dashed=1;html=1;rounded=0;" parent="1" edge="1">
          <mxGeometry width="50" height="50" relative="1" as="geometry">
            <mxPoint x="2034.091463414634" y="182" as="sourcePoint" />
            <mxPoint x="2034.5" y="48" as="targetPoint" />
          </mxGeometry>
        </mxCell>
        <mxCell id="LoVnn4rdXUuGoE2ys0YD-5" value="startMonitoring(order)" style="endArrow=classic;html=1;rounded=0;dashed=1;" parent="1" edge="1">
          <mxGeometry x="0.0221" y="-10" width="50" height="50" relative="1" as="geometry">
            <mxPoint x="2281" y="109" as="sourcePoint" />
            <mxPoint x="2034" y="109" as="targetPoint" />
            <mxPoint as="offset" />
          </mxGeometry>
        </mxCell>
        <mxCell id="LoVnn4rdXUuGoE2ys0YD-7" value="setProgressWarehouse()" style="endArrow=classic;html=1;rounded=0;" parent="1" target="Dkkg-td01ur48ESy3Eq0-14" edge="1">
          <mxGeometry width="50" height="50" relative="1" as="geometry">
            <mxPoint x="2291" y="123.00000000000011" as="sourcePoint" />
            <mxPoint x="2545" y="123.00000000000011" as="targetPoint" />
          </mxGeometry>
        </mxCell>
        <mxCell id="LoVnn4rdXUuGoE2ys0YD-8" value="sendCompleteCommand()" style="endArrow=classic;html=1;rounded=0;" parent="1" edge="1">
          <mxGeometry width="50" height="50" relative="1" as="geometry">
            <mxPoint x="2825" y="174" as="sourcePoint" />
            <mxPoint x="2291" y="174" as="targetPoint" />
          </mxGeometry>
        </mxCell>
        <mxCell id="LoVnn4rdXUuGoE2ys0YD-9" value="setProgressWarehouse()" style="endArrow=classic;html=1;rounded=0;" parent="1" edge="1">
          <mxGeometry y="29" width="50" height="50" relative="1" as="geometry">
            <mxPoint x="2835" y="135" as="sourcePoint" />
            <mxPoint x="2835" y="165" as="targetPoint" />
            <Array as="points">
              <mxPoint x="2870" y="135" />
              <mxPoint x="2870" y="165" />
            </Array>
            <mxPoint as="offset" />
          </mxGeometry>
        </mxCell>
        <mxCell id="LoVnn4rdXUuGoE2ys0YD-10" value="setProgressGrabber()" style="endArrow=classic;html=1;rounded=0;" parent="1" edge="1">
          <mxGeometry x="-0.0012" width="50" height="50" relative="1" as="geometry">
            <mxPoint x="2291" y="1280" as="sourcePoint" />
            <mxPoint x="2825" y="1280" as="targetPoint" />
            <mxPoint as="offset" />
          </mxGeometry>
        </mxCell>
        <mxCell id="LoVnn4rdXUuGoE2ys0YD-11" value="setProgressGrabber()" style="endArrow=classic;html=1;rounded=0;" parent="1" edge="1">
          <mxGeometry width="50" height="50" relative="1" as="geometry">
            <mxPoint x="2825" y="1333.47" as="sourcePoint" />
            <mxPoint x="2291" y="1333.47" as="targetPoint" />
          </mxGeometry>
        </mxCell>
        <mxCell id="LoVnn4rdXUuGoE2ys0YD-12" value="setProgressGrabber()" style="endArrow=classic;html=1;rounded=0;" parent="1" edge="1">
          <mxGeometry y="29" width="50" height="50" relative="1" as="geometry">
            <mxPoint x="2835" y="1292" as="sourcePoint" />
            <mxPoint x="2835" y="1322" as="targetPoint" />
            <Array as="points">
              <mxPoint x="2870" y="1292" />
              <mxPoint x="2870" y="1322" />
            </Array>
            <mxPoint as="offset" />
          </mxGeometry>
        </mxCell>
        <mxCell id="LoVnn4rdXUuGoE2ys0YD-13" value="setProgressDelivery()" style="endArrow=classic;html=1;rounded=0;" parent="1" edge="1">
          <mxGeometry x="-0.0012" width="50" height="50" relative="1" as="geometry">
            <mxPoint x="2290.5" y="1553" as="sourcePoint" />
            <mxPoint x="2824.5" y="1553" as="targetPoint" />
            <mxPoint as="offset" />
          </mxGeometry>
        </mxCell>
        <mxCell id="LoVnn4rdXUuGoE2ys0YD-14" value="setProgressDelivery()" style="endArrow=classic;html=1;rounded=0;" parent="1" edge="1">
          <mxGeometry y="29" width="50" height="50" relative="1" as="geometry">
            <mxPoint x="2834.5" y="1565" as="sourcePoint" />
            <mxPoint x="2834.5" y="1595" as="targetPoint" />
            <Array as="points">
              <mxPoint x="2869.5" y="1565" />
              <mxPoint x="2869.5" y="1595" />
            </Array>
            <mxPoint as="offset" />
          </mxGeometry>
        </mxCell>
        <mxCell id="LoVnn4rdXUuGoE2ys0YD-15" value="setProgressDelivery()" style="endArrow=classic;html=1;rounded=0;" parent="1" edge="1">
          <mxGeometry width="50" height="50" relative="1" as="geometry">
            <mxPoint x="2824.5" y="1606.47" as="sourcePoint" />
            <mxPoint x="2290.5" y="1606.47" as="targetPoint" />
          </mxGeometry>
        </mxCell>
        <mxCell id="LoVnn4rdXUuGoE2ys0YD-16" value="setProgressDelivered()" style="endArrow=classic;html=1;rounded=0;" parent="1" edge="1">
          <mxGeometry x="-0.0012" width="50" height="50" relative="1" as="geometry">
            <mxPoint x="2291" y="2210" as="sourcePoint" />
            <mxPoint x="2825" y="2210" as="targetPoint" />
            <mxPoint as="offset" />
          </mxGeometry>
        </mxCell>
        <mxCell id="LoVnn4rdXUuGoE2ys0YD-17" value="setProgressDelivered()" style="endArrow=classic;html=1;rounded=0;" parent="1" edge="1">
          <mxGeometry width="50" height="50" relative="1" as="geometry">
            <mxPoint x="2825" y="2263.4700000000003" as="sourcePoint" />
            <mxPoint x="2291" y="2263.4700000000003" as="targetPoint" />
          </mxGeometry>
        </mxCell>
        <mxCell id="LoVnn4rdXUuGoE2ys0YD-18" value="setProgressDelivered()" style="endArrow=classic;html=1;rounded=0;" parent="1" edge="1">
          <mxGeometry y="29" width="50" height="50" relative="1" as="geometry">
            <mxPoint x="2835" y="2222" as="sourcePoint" />
            <mxPoint x="2835" y="2252" as="targetPoint" />
            <Array as="points">
              <mxPoint x="2870" y="2222" />
              <mxPoint x="2870" y="2252" />
            </Array>
            <mxPoint as="offset" />
          </mxGeometry>
        </mxCell>
        <mxCell id="LoVnn4rdXUuGoE2ys0YD-19" value="error" style="shape=umlFrame;whiteSpace=wrap;html=1;strokeColor=#000066;fillColor=none;fontFamily=Tahoma;fontSize=10;fontColor=#000066;align=center;width=41;height=15;gradientColor=none;" parent="1" vertex="1">
          <mxGeometry x="2240" y="2310" width="720" height="150" as="geometry" />
        </mxCell>
        <mxCell id="LoVnn4rdXUuGoE2ys0YD-20" value="&lt;b&gt;new GoodsNotAvailable&lt;/b&gt;&lt;br&gt;or&lt;br&gt;&lt;b&gt;timeout&lt;/b&gt;&lt;br&gt;or&lt;br&gt;&lt;b&gt;new DeliveryStationError&lt;/b&gt;" style="endArrow=classic;html=1;rounded=0;dashed=1;" parent="1" edge="1">
          <mxGeometry x="-1" y="-60" width="50" height="50" relative="1" as="geometry">
            <mxPoint x="2200" y="2310" as="sourcePoint" />
            <mxPoint x="2240" y="2310.4300000000003" as="targetPoint" />
            <mxPoint x="-60" y="-60" as="offset" />
          </mxGeometry>
        </mxCell>
        <mxCell id="LoVnn4rdXUuGoE2ys0YD-21" value="setProgressFailure()" style="endArrow=classic;html=1;rounded=0;" parent="1" edge="1">
          <mxGeometry x="-0.0012" width="50" height="50" relative="1" as="geometry">
            <mxPoint x="2291" y="2384" as="sourcePoint" />
            <mxPoint x="2825" y="2384" as="targetPoint" />
            <mxPoint as="offset" />
          </mxGeometry>
        </mxCell>
        <mxCell id="LoVnn4rdXUuGoE2ys0YD-22" value="setProgressFailure()" style="endArrow=classic;html=1;rounded=0;" parent="1" edge="1">
          <mxGeometry x="-0.0004" width="50" height="50" relative="1" as="geometry">
            <mxPoint x="2825" y="2437.4700000000003" as="sourcePoint" />
            <mxPoint x="2291" y="2437.4700000000003" as="targetPoint" />
            <mxPoint as="offset" />
          </mxGeometry>
        </mxCell>
        <mxCell id="LoVnn4rdXUuGoE2ys0YD-23" value="setProgressFailure()" style="endArrow=classic;html=1;rounded=0;" parent="1" edge="1">
          <mxGeometry y="29" width="50" height="50" relative="1" as="geometry">
            <mxPoint x="2835" y="2396" as="sourcePoint" />
            <mxPoint x="2835" y="2426" as="targetPoint" />
            <Array as="points">
              <mxPoint x="2870" y="2396" />
              <mxPoint x="2870" y="2426" />
            </Array>
            <mxPoint as="offset" />
          </mxGeometry>
        </mxCell>
        <mxCell id="LoVnn4rdXUuGoE2ys0YD-24" value="UserTask&lt;br&gt;error-occured" style="endArrow=classic;html=1;rounded=0;" parent="1" edge="1">
          <mxGeometry x="-0.0169" y="7" width="50" height="50" relative="1" as="geometry">
            <mxPoint x="2291" y="2330" as="sourcePoint" />
            <mxPoint x="2291" y="2370" as="targetPoint" />
            <Array as="points">
              <mxPoint x="2320" y="2330" />
              <mxPoint x="2330" y="2330" />
              <mxPoint x="2330" y="2370" />
            </Array>
            <mxPoint as="offset" />
          </mxGeometry>
        </mxCell>
        <mxCell id="msOhgIAyhXYPc9zB9rtn-4" value="User&lt;br&gt;Interface" style="shape=note;whiteSpace=wrap;html=1;backgroundOutline=1;darkOpacity=0.05;" vertex="1" parent="1">
          <mxGeometry x="1160" y="2644" width="80" height="100" as="geometry" />
        </mxCell>
        <mxCell id="msOhgIAyhXYPc9zB9rtn-6" value="Factorysimulator&lt;div&gt;Microservice / Real Factory&lt;/div&gt;" style="rounded=0;whiteSpace=wrap;html=1;" vertex="1" parent="1">
          <mxGeometry x="1338.5" y="2684" width="120" height="60" as="geometry" />
        </mxCell>
        <mxCell id="msOhgIAyhXYPc9zB9rtn-7" value="Factorylistener&lt;div&gt;Microservice&lt;/div&gt;" style="rounded=0;whiteSpace=wrap;html=1;" vertex="1" parent="1">
          <mxGeometry x="1538.5" y="2684" width="120" height="60" as="geometry" />
        </mxCell>
        <mxCell id="msOhgIAyhXYPc9zB9rtn-8" value="Camunda Cloud Workflow" style="ellipse;shape=cloud;whiteSpace=wrap;html=1;" vertex="1" parent="1">
          <mxGeometry x="2226" y="2674" width="120" height="80" as="geometry" />
        </mxCell>
        <mxCell id="msOhgIAyhXYPc9zB9rtn-9" value="&lt;div&gt;Warehouse&lt;br&gt;Microservice&lt;/div&gt;" style="rounded=0;whiteSpace=wrap;html=1;" vertex="1" parent="1">
          <mxGeometry x="2490" y="2684" width="120" height="60" as="geometry" />
        </mxCell>
        <mxCell id="msOhgIAyhXYPc9zB9rtn-10" value="&lt;div&gt;Order&lt;br&gt;Microservice&lt;/div&gt;" style="rounded=0;whiteSpace=wrap;html=1;" vertex="1" parent="1">
          <mxGeometry x="2770" y="2684" width="120" height="60" as="geometry" />
        </mxCell>
        <mxCell id="msOhgIAyhXYPc9zB9rtn-11" value="Grabber&lt;div&gt;Microservice&lt;/div&gt;" style="rounded=0;whiteSpace=wrap;html=1;" vertex="1" parent="1">
          <mxGeometry x="2984" y="2684" width="120" height="60" as="geometry" />
        </mxCell>
        <mxCell id="msOhgIAyhXYPc9zB9rtn-12" value="Delivery&lt;br&gt;Microservice" style="rounded=0;whiteSpace=wrap;html=1;" vertex="1" parent="1">
          <mxGeometry x="3220" y="2684" width="120" height="60" as="geometry" />
        </mxCell>
        <mxCell id="msOhgIAyhXYPc9zB9rtn-13" value="" style="endArrow=none;dashed=1;html=1;rounded=0;" edge="1" parent="1">
          <mxGeometry width="50" height="50" relative="1" as="geometry">
            <mxPoint x="1201" y="3760" as="sourcePoint" />
            <mxPoint x="1200.5" y="2740" as="targetPoint" />
          </mxGeometry>
        </mxCell>
        <mxCell id="msOhgIAyhXYPc9zB9rtn-14" value="" style="endArrow=none;dashed=1;html=1;rounded=0;" edge="1" parent="1" target="msOhgIAyhXYPc9zB9rtn-6">
          <mxGeometry width="50" height="50" relative="1" as="geometry">
            <mxPoint x="1399" y="4080" as="sourcePoint" />
            <mxPoint x="1399.5" y="2640" as="targetPoint" />
          </mxGeometry>
        </mxCell>
        <mxCell id="msOhgIAyhXYPc9zB9rtn-15" value="" style="endArrow=none;dashed=1;html=1;rounded=0;" edge="1" parent="1" source="Dkkg-td01ur48ESy3Eq0-184" target="msOhgIAyhXYPc9zB9rtn-7">
          <mxGeometry width="50" height="50" relative="1" as="geometry">
            <mxPoint x="1598.5" y="3310" as="sourcePoint" />
            <mxPoint x="1598.1799999999998" y="2640" as="targetPoint" />
          </mxGeometry>
        </mxCell>
        <mxCell id="msOhgIAyhXYPc9zB9rtn-17" value="" style="endArrow=none;dashed=1;html=1;rounded=0;" edge="1" parent="1">
          <mxGeometry width="50" height="50" relative="1" as="geometry">
            <mxPoint x="1599" y="4080" as="sourcePoint" />
            <mxPoint x="1599" y="3110" as="targetPoint" />
          </mxGeometry>
        </mxCell>
        <mxCell id="Dkkg-td01ur48ESy3Eq0-184" value="" style="html=1;points=[];perimeter=orthogonalPerimeter;outlineConnect=0;targetShapes=umlLifeline;portConstraint=eastwest;newEdgeStyle={&quot;edgeStyle&quot;:&quot;elbowEdgeStyle&quot;,&quot;elbow&quot;:&quot;vertical&quot;,&quot;curved&quot;:0,&quot;rounded&quot;:0};" parent="1" vertex="1">
          <mxGeometry x="1593.5" y="3096" width="10" height="20" as="geometry" />
        </mxCell>
        <mxCell id="msOhgIAyhXYPc9zB9rtn-18" value="" style="endArrow=none;dashed=1;html=1;rounded=0;" edge="1" parent="1" target="msOhgIAyhXYPc9zB9rtn-9">
          <mxGeometry width="50" height="50" relative="1" as="geometry">
            <mxPoint x="2550" y="4000" as="sourcePoint" />
            <mxPoint x="2549.5" y="2640" as="targetPoint" />
          </mxGeometry>
        </mxCell>
        <mxCell id="Dkkg-td01ur48ESy3Eq0-156" value="message on topic&lt;br&gt;&quot;VGR_1-processed&quot; (GrabberUpdateDto)" style="endArrow=classic;html=1;rounded=0;" parent="1" edge="1">
          <mxGeometry width="50" height="50" relative="1" as="geometry">
            <mxPoint x="1600" y="3316" as="sourcePoint" />
            <mxPoint x="3041.5" y="3316" as="targetPoint" />
            <mxPoint as="offset" />
          </mxGeometry>
        </mxCell>
        <mxCell id="Dkkg-td01ur48ESy3Eq0-161" value="" style="html=1;points=[];perimeter=orthogonalPerimeter;outlineConnect=0;targetShapes=umlLifeline;portConstraint=eastwest;newEdgeStyle={&quot;edgeStyle&quot;:&quot;elbowEdgeStyle&quot;,&quot;elbow&quot;:&quot;vertical&quot;,&quot;curved&quot;:0,&quot;rounded&quot;:0};" parent="1" vertex="1">
          <mxGeometry x="2545" y="3965.6" width="10" height="20" as="geometry" />
        </mxCell>
        <mxCell id="Dkkg-td01ur48ESy3Eq0-165" value="" style="html=1;points=[];perimeter=orthogonalPerimeter;outlineConnect=0;targetShapes=umlLifeline;portConstraint=eastwest;newEdgeStyle={&quot;edgeStyle&quot;:&quot;elbowEdgeStyle&quot;,&quot;elbow&quot;:&quot;vertical&quot;,&quot;curved&quot;:0,&quot;rounded&quot;:0};" parent="1" vertex="1">
          <mxGeometry x="2545" y="4005.6" width="10" height="20" as="geometry" />
        </mxCell>
        <mxCell id="msOhgIAyhXYPc9zB9rtn-19" value="" style="endArrow=none;dashed=1;html=1;rounded=0;" edge="1" parent="1" target="msOhgIAyhXYPc9zB9rtn-10">
          <mxGeometry width="50" height="50" relative="1" as="geometry">
            <mxPoint x="2830" y="3760" as="sourcePoint" />
            <mxPoint x="2880" y="3150" as="targetPoint" />
          </mxGeometry>
        </mxCell>
        <mxCell id="msOhgIAyhXYPc9zB9rtn-20" value="" style="endArrow=none;dashed=1;html=1;rounded=0;entryX=0.5;entryY=1;entryDx=0;entryDy=0;" edge="1" parent="1" target="msOhgIAyhXYPc9zB9rtn-11">
          <mxGeometry width="50" height="50" relative="1" as="geometry">
            <mxPoint x="3044" y="3390" as="sourcePoint" />
            <mxPoint x="2880" y="3120" as="targetPoint" />
          </mxGeometry>
        </mxCell>
        <mxCell id="msOhgIAyhXYPc9zB9rtn-21" value="" style="endArrow=none;dashed=1;html=1;rounded=0;entryX=0.5;entryY=1;entryDx=0;entryDy=0;" edge="1" parent="1" source="Dkkg-td01ur48ESy3Eq0-169" target="msOhgIAyhXYPc9zB9rtn-12">
          <mxGeometry width="50" height="50" relative="1" as="geometry">
            <mxPoint x="3280" y="3310" as="sourcePoint" />
            <mxPoint x="2940" y="2690" as="targetPoint" />
          </mxGeometry>
        </mxCell>
        <mxCell id="msOhgIAyhXYPc9zB9rtn-5" value="User" style="shape=umlActor;verticalLabelPosition=bottom;verticalAlign=top;html=1;outlineConnect=0;" vertex="1" parent="1">
          <mxGeometry x="1185" y="2755" width="30" height="60" as="geometry" />
        </mxCell>
        <mxCell id="msOhgIAyhXYPc9zB9rtn-22" value="Streamprocessor Microservice" style="rounded=0;whiteSpace=wrap;html=1;" vertex="1" parent="1">
          <mxGeometry x="1760" y="2684" width="120" height="60" as="geometry" />
        </mxCell>
        <mxCell id="msOhgIAyhXYPc9zB9rtn-23" value="" style="endArrow=none;dashed=1;html=1;rounded=0;" edge="1" target="msOhgIAyhXYPc9zB9rtn-22" parent="1">
          <mxGeometry width="50" height="50" relative="1" as="geometry">
            <mxPoint x="1821" y="3390" as="sourcePoint" />
            <mxPoint x="1819.6799999999998" y="2640" as="targetPoint" />
          </mxGeometry>
        </mxCell>
        <mxCell id="msOhgIAyhXYPc9zB9rtn-24" value="Monitoring Microservice" style="rounded=0;whiteSpace=wrap;html=1;" vertex="1" parent="1">
          <mxGeometry x="1974" y="2684" width="120" height="60" as="geometry" />
        </mxCell>
        <mxCell id="msOhgIAyhXYPc9zB9rtn-25" value="" style="endArrow=none;dashed=1;html=1;rounded=0;" edge="1" target="msOhgIAyhXYPc9zB9rtn-24" parent="1">
          <mxGeometry width="50" height="50" relative="1" as="geometry">
            <mxPoint x="2035" y="4070" as="sourcePoint" />
            <mxPoint x="2033.6799999999998" y="2640" as="targetPoint" />
          </mxGeometry>
        </mxCell>
        <mxCell id="msOhgIAyhXYPc9zB9rtn-26" value="Kafka messages on&lt;br&gt;topic &quot;factory-all&quot;" style="endArrow=classic;html=1;rounded=0;dashed=1;" edge="1" parent="1">
          <mxGeometry y="-20" width="50" height="50" relative="1" as="geometry">
            <mxPoint x="1600" y="3158" as="sourcePoint" />
            <mxPoint x="1820" y="3158" as="targetPoint" />
            <mxPoint as="offset" />
          </mxGeometry>
        </mxCell>
        <mxCell id="msOhgIAyhXYPc9zB9rtn-28" value="Kafka messages on&lt;br&gt;topic &quot;monitoring-all&quot;" style="endArrow=classic;html=1;rounded=0;dashed=1;" edge="1" parent="1">
          <mxGeometry x="-0.0021" y="-20" width="50" height="50" relative="1" as="geometry">
            <mxPoint x="1820" y="3180" as="sourcePoint" />
            <mxPoint x="2035" y="3180" as="targetPoint" />
            <mxPoint as="offset" />
          </mxGeometry>
        </mxCell>
        <mxCell id="msOhgIAyhXYPc9zB9rtn-30" value="sendUpdates(MonitorUpdateDto)" style="endArrow=classic;html=1;rounded=0;" edge="1" parent="1">
          <mxGeometry width="50" height="50" relative="1" as="geometry">
            <mxPoint x="2035" y="3610" as="sourcePoint" />
            <mxPoint x="1200" y="3610" as="targetPoint" />
          </mxGeometry>
        </mxCell>
        <mxCell id="msOhgIAyhXYPc9zB9rtn-31" value="fetchUpdatesColor(ColorStats)" style="endArrow=classic;html=1;rounded=0;" edge="1" parent="1">
          <mxGeometry width="50" height="50" relative="1" as="geometry">
            <mxPoint x="2035" y="3640" as="sourcePoint" />
            <mxPoint x="1200" y="3640" as="targetPoint" />
          </mxGeometry>
        </mxCell>
        <mxCell id="msOhgIAyhXYPc9zB9rtn-32" value="fetchUpdatesSensor(LightBarrierStats)" style="endArrow=classic;html=1;rounded=0;" edge="1" parent="1">
          <mxGeometry width="50" height="50" relative="1" as="geometry">
            <mxPoint x="2035" y="3670" as="sourcePoint" />
            <mxPoint x="1200" y="3670" as="targetPoint" />
          </mxGeometry>
        </mxCell>
        <mxCell id="msOhgIAyhXYPc9zB9rtn-33" value="fetchUpdatesFactory(FactoryStats)" style="endArrow=classic;html=1;rounded=0;" edge="1" parent="1">
          <mxGeometry width="50" height="50" relative="1" as="geometry">
            <mxPoint x="2035" y="3700" as="sourcePoint" />
            <mxPoint x="1200" y="3700" as="targetPoint" />
          </mxGeometry>
        </mxCell>
        <mxCell id="Dkkg-td01ur48ESy3Eq0-179" value="" style="html=1;points=[];perimeter=orthogonalPerimeter;outlineConnect=0;targetShapes=umlLifeline;portConstraint=eastwest;newEdgeStyle={&quot;edgeStyle&quot;:&quot;elbowEdgeStyle&quot;,&quot;elbow&quot;:&quot;vertical&quot;,&quot;curved&quot;:0,&quot;rounded&quot;:0};" parent="1" vertex="1">
          <mxGeometry x="1395" y="2975" width="10" height="20" as="geometry" />
        </mxCell>
        <mxCell id="msOhgIAyhXYPc9zB9rtn-34" value="startSending()" style="endArrow=classic;html=1;rounded=0;" edge="1" parent="1">
          <mxGeometry x="-1" y="-50" width="50" height="50" relative="1" as="geometry">
            <mxPoint x="1349" y="3870" as="sourcePoint" />
            <mxPoint x="1399" y="3870" as="targetPoint" />
            <mxPoint x="-50" y="-50" as="offset" />
          </mxGeometry>
        </mxCell>
        <mxCell id="msOhgIAyhXYPc9zB9rtn-35" value="startSending()" style="endArrow=classic;html=1;rounded=0;" edge="1" parent="1">
          <mxGeometry x="-1" y="-50" width="50" height="50" relative="1" as="geometry">
            <mxPoint x="1548.5" y="3870" as="sourcePoint" />
            <mxPoint x="1598.5" y="3870" as="targetPoint" />
            <mxPoint x="-50" y="-50" as="offset" />
          </mxGeometry>
        </mxCell>
        <mxCell id="msOhgIAyhXYPc9zB9rtn-36" value="getColorStats()" style="endArrow=classic;html=1;rounded=0;" edge="1" parent="1">
          <mxGeometry x="-1" y="-50" width="50" height="50" relative="1" as="geometry">
            <mxPoint x="1985" y="3910" as="sourcePoint" />
            <mxPoint x="2035" y="3910" as="targetPoint" />
            <mxPoint x="-50" y="-50" as="offset" />
          </mxGeometry>
        </mxCell>
        <mxCell id="msOhgIAyhXYPc9zB9rtn-37" value="getFactoryStats()" style="endArrow=classic;html=1;rounded=0;" edge="1" parent="1">
          <mxGeometry x="-1" y="-50" width="50" height="50" relative="1" as="geometry">
            <mxPoint x="1984" y="3935" as="sourcePoint" />
            <mxPoint x="2034" y="3935" as="targetPoint" />
            <mxPoint x="-50" y="-50" as="offset" />
          </mxGeometry>
        </mxCell>
        <mxCell id="msOhgIAyhXYPc9zB9rtn-38" value="...etc." style="endArrow=classic;html=1;rounded=0;" edge="1" parent="1">
          <mxGeometry x="-1" y="-50" width="50" height="50" relative="1" as="geometry">
            <mxPoint x="1984" y="3958" as="sourcePoint" />
            <mxPoint x="2034" y="3958" as="targetPoint" />
            <mxPoint x="-50" y="-50" as="offset" />
          </mxGeometry>
        </mxCell>
      </root>
    </mxGraphModel>
  </diagram>
</mxfile>
